<svg xmlns="http://www.w3.org/2000/svg" viewBox="0 0 816.91 204.66"><defs><style>.cls-1{fill:#fff;}</style></defs><title>logo_2</title><g id="Layer_2" data-name="Layer 2"><g id="Your_Design" data-name="Your Design"><path class="cls-1" d="M128.65,114q-14.48-6.7-37.29-8.46V105q17-3.13,28.64-10.21t17.11-16.23a35.79,35.79,0,0,0,5.51-18.67,33.2,33.2,0,0,0-7.14-21.12q-7.15-9.08-21.37-14.16t-34.9-5.08q-4.89,0-17.42.25T39,20.05q-26.07,0-39-.75v5.14q8.52.38,12.41,2a9.28,9.28,0,0,1,5.33,6q1.44,4.39,1.44,14V173.83q0,9.65-1.44,14a9.27,9.27,0,0,1-5.33,6q-3.88,1.63-12.41,2V201q13-.75,39.48-.75,13.54,0,26.88.38t18.86.38q21.93,0,37.85-5.7t24.44-16.92Q156,167.19,156,151.27a37,37,0,0,0-6.45-20.87Q143.12,120.69,128.65,114ZM60,46.5q0-9.27,1.19-13.85a9.56,9.56,0,0,1,4.51-6.39q3.32-1.82,10.21-1.82,13.16,0,19.18,9.46t6,28.76q0,19.05-6.71,30.46T71.06,104.53H60ZM77.7,195.14q-7.77,0-11.41-1.63a9,9,0,0,1-4.95-6Q60,183.11,60,173.83V108.91H70.81q22.18,0,32.4,10.53t10.21,30.71Q113.42,195.14,77.7,195.14Z"/><path class="cls-1" d="M199.33,36.28q6.25-7.56,17-7.56a25.28,25.28,0,0,1,13.88,4.46,25.42,25.42,0,0,1,7.6,7.42,31.85,31.85,0,0,1,4.13,9.64A89.29,89.29,0,0,1,244,63.57h3.43q0-26.81.59-37.41h-3.43q-.73,8.92-3.8,8.91a5.05,5.05,0,0,1-2.92-1.31,52.76,52.76,0,0,0-12.31-7.16A40.62,40.62,0,0,0,210.33,24q-16.51,0-29.34,7a50.34,50.34,0,0,0-20,19.73q-7.2,12.71-7.2,29.23,0,16.88,7,29.12a46.35,46.35,0,0,0,19.73,18.67q12.71,6.43,29.67,6.43A42.61,42.61,0,0,0,221.07,133a39.82,39.82,0,0,0,8.59-3.29,79.26,79.26,0,0,0,8.22-5.15,6.18,6.18,0,0,1,3.07-1.24q1.61,0,2.45,2.08a24.86,24.86,0,0,1,1.21,6.76H248q-.59-11-.59-38.87H244a106.74,106.74,0,0,1-2.08,14.8,32.77,32.77,0,0,1-4.13,10.27,23.44,23.44,0,0,1-7.6,7.38,25.27,25.27,0,0,1-13.88,4.46q-10.74,0-17-7.56a43.54,43.54,0,0,1-8.69-18.89,114.64,114.64,0,0,1-2.45-24.26,114.66,114.66,0,0,1,2.45-24.26A43.55,43.55,0,0,1,199.33,36.28Z"/><path class="cls-1" d="M444.33,191a10.76,10.76,0,0,1-5.26,1.5,8.62,8.62,0,0,1-7.58-4q-2.7-4-4.82-14.41l-5.89-26.45q-2.25-10.78-7.89-17.73t-15.6-10.84q-10-3.88-25.51-5.26h-.25q21.18-2.51,34.09-10.09t18.3-17.86a46.07,46.07,0,0,0,5.39-21.68q0-21.43-17.92-33T358.1,19.55q-4.89,0-17.42.25t-22.81.25q-25.94,0-39-.75v5.14q8.52.38,12.41,2a9.29,9.29,0,0,1,5.33,6q1.44,4.39,1.44,14V173.83q0,9.65-1.44,14a9.28,9.28,0,0,1-5.33,6q-3.89,1.63-12.41,2V201q13-.75,40.48-.75,25.06,0,38.73.75v-5.14q-8.65-.38-12.53-2a9.08,9.08,0,0,1-5.26-6q-1.38-4.38-1.38-14v-59H355.6q7.52,0,12.1,4.45a28.73,28.73,0,0,1,7,12,161.76,161.76,0,0,1,4.7,20L384,176.84q2.63,15.29,11.28,21.56t23.44,6.27q11.15,0,19.11-3.51a44.06,44.06,0,0,0,15-11.41l-3.51-3.13A24.61,24.61,0,0,1,444.33,191ZM350,109.66h-11V46.5q0-9.27,1.19-13.85a9.57,9.57,0,0,1,4.51-6.39q3.32-1.82,10.21-1.82,16.92,0,24.38,10.78t7.46,31.83q0,13-3.07,22.31a28.16,28.16,0,0,1-11.16,14.79Q364.37,109.67,350,109.66Z"/><path class="cls-1" d="M555.57,121.7q0-56.9-48.25-56.9-18.55,0-32.71,8t-22.18,24q-8,16-8,39.29,0,22.81,7.46,38.16t20.8,22.87q13.35,7.52,31,7.52a49.1,49.1,0,0,0,23.88-5.7,53.07,53.07,0,0,0,17.29-14.79,63.94,63.94,0,0,0,10.09-19.61l-4.51-1.5q-12.79,20.56-34,20.55a28.16,28.16,0,0,1-16.23-5.2q-7.58-5.2-12.35-16.42t-4.76-28.26q0-8.27.38-12ZM483,116.81q1.38-23.94,7.46-35.28t15.23-11.34q9,0,13.47,13.29t4.07,33.34Z"/><path class="cls-1" d="M672.08,121.7q0-56.9-48.25-56.9-18.55,0-32.71,8t-22.18,24q-8,16-8,39.29,0,22.81,7.46,38.16t20.8,22.87q13.35,7.52,31,7.52a49.1,49.1,0,0,0,23.88-5.7,53.07,53.07,0,0,0,17.3-14.79,63.92,63.92,0,0,0,10.09-19.61l-4.51-1.5q-12.79,20.56-34,20.55a28.16,28.16,0,0,1-16.23-5.2q-7.59-5.2-12.35-16.42t-4.76-28.26q0-8.27.38-12Zm-72.57-4.89q1.38-23.94,7.46-35.28T622.2,70.18q9,0,13.47,13.29t4.07,33.34Z"/><path class="cls-1" d="M804.07,190.06q-3.57-5.33-3.57-17.23V0Q785.58,3.64,763,3.63q-7.77,0-15.92-.75V8.27q9,0,12.72,5.33t3.7,17.23V74.45Q754,64.8,735.07,64.8q-16.8,0-29.77,7.77T685,95.88q-7.33,15.54-7.21,38.1-.13,23.81,6.45,39.67t18.42,23.44q11.85,7.58,27.51,7.58,24.69,0,33.34-23.19v22.06Q778.31,200,801,200q7.77,0,15.92.75v-5.39Q807.64,195.39,804.07,190.06Zm-40.55-19.24a29,29,0,0,1-4.2,12.1,23.32,23.32,0,0,1-8.21,8,20.84,20.84,0,0,1-10.4,2.76q-24.57,0-24.19-59-.13-31.08,7.27-46.75t20.93-15.67q12.28,0,18.8,8.77Z"/><circle class="cls-1" cx="207.92" cy="181.87" r="12.79"/></g></g></svg>